<?xml version="1.0" encoding="iso-8859-1"?>
<!-- Uploaded to: SVG Repo, www.svgrepo.com, Generator: SVG Repo Mixer Tools -->
<svg fill="#000000" stroke="#000000" stroke-width="5" width="100%" version="1.1" id="Layer_1" xmlns="http://www.w3.org/2000/svg" xmlns:xlink="http://www.w3.org/1999/xlink" 
	 viewBox="0 0 512 512" xml:space="preserve">
<g>
	<g>
		<path d="M428,0H84C72.972,0,64,8.972,64,20v448c0,11.028,8.972,20,20,20h344c11.028,0,20-8.972,20-20V20
			C448,8.972,439.028,0,428,0z M440,468c0,6.616-5.384,12-12,12H84c-6.616,0-12-5.384-12-12V20c0-6.616,5.384-12,12-12h344
			c6.616,0,12,5.384,12,12V468z"/>
	</g>
</g>
<g>
	<g>
		<path d="M256,0c-2.208,0-4,1.792-4,4v480c0,2.208,1.792,4,4,4s4-1.792,4-4V4C260,1.792,258.208,0,256,0z"/>
	</g>
</g>
<g>
	<g>
		<path d="M428,480c-2.208,0-4,1.792-4,4v20H88v-20c0-2.208-1.792-4-4-4s-4,1.792-4,4v24c0,2.208,1.792,4,4,4h344
			c2.208,0,4-1.792,4-4v-24C432,481.792,430.208,480,428,480z"/>
	</g>
</g>
<g>
	<g>
		<path d="M222,168c-7.72,0-14,6.28-14,14c0,7.72,6.28,14,14,14c7.72,0,14-6.28,14-14C236,174.28,229.72,168,222,168z M222,188
			c-3.308,0-6-2.692-6-6s2.692-6,6-6s6,2.692,6,6S225.308,188,222,188z"/>
	</g>
</g>
<g>
	<g>
		<path d="M290,168c-7.72,0-14,6.28-14,14c0,7.72,6.28,14,14,14c7.72,0,14-6.28,14-14C304,174.28,297.72,168,290,168z M290,188
			c-3.308,0-6-2.692-6-6s2.692-6,6-6c3.308,0,6,2.692,6,6S293.308,188,290,188z"/>
	</g>
</g>
<g>
	<g>
		<path d="M222,400c-7.72,0-14,6.28-14,14c0,7.72,6.28,14,14,14c7.72,0,14-6.28,14-14C236,406.28,229.72,400,222,400z M222,420
			c-3.308,0-6-2.692-6-6c0-3.308,2.692-6,6-6s6,2.692,6,6C228,417.308,225.308,420,222,420z"/>
	</g>
</g>
<g>
	<g>
		<path d="M290,400c-7.72,0-14,6.28-14,14c0,7.72,6.28,14,14,14c7.72,0,14-6.28,14-14C304,406.28,297.72,400,290,400z M290,420
			c-3.308,0-6-2.692-6-6c0-3.308,2.692-6,6-6c3.308,0,6,2.692,6,6C296,417.308,293.308,420,290,420z"/>
	</g>
</g>
<g>
	<g>
		<g>
			<path d="M88,368c-2.208,0-4,1.792-4,4v8c0,2.208,1.792,4,4,4s4-1.792,4-4v-8C92,369.792,90.208,368,88,368z"/>
			<path d="M88,396c-2.208,0-4,1.792-4,4v60c0,2.208,1.792,4,4,4s4-1.792,4-4v-60C92,397.792,90.208,396,88,396z"/>
			<path d="M392,20h-16c-2.208,0-4,1.792-4,4s1.792,4,4,4h16c2.208,0,4-1.792,4-4S394.208,20,392,20z"/>
			<path d="M424,20h-16c-2.208,0-4,1.792-4,4s1.792,4,4,4h12v52c0,2.208,1.792,4,4,4s4-1.792,4-4V24C428,21.792,426.208,20,424,20z"
				/>
		</g>
	</g>
</g>
<g>
	<g>
		<path d="M444,340H68c-2.208,0-4,1.792-4,4s1.792,4,4,4h376c2.208,0,4-1.792,4-4S446.208,340,444,340z"/>
	</g>
</g>
</svg>