<?xml version="1.0" encoding="iso-8859-1"?>
<!-- Uploaded to: SVG Repo, www.svgrepo.com, Generator: SVG Repo Mixer Tools -->
<svg fill="#000000" width="100%" version="1.1" id="Layer_1" viewBox="0 0 512 480" xmlns="http://www.w3.org/2000/svg">
  <defs></defs>
  <g transform="matrix(1, 0, 0, 1, 0, -16)">
    <g>
      <path d="M103.612,47.719V16.939H35.179V47.72H0v169.573h15.394v233.061h333.163v-15.665h-66.578V278.03H151.433v156.657H31.059
			V217.292h70.163l111.086-111.086l111.087,111.086h78.957v104.081h15.665V217.292h15.394V47.719H103.612z M167.098,293.695h99.215
			v140.991h-99.215V293.695z M50.845,32.604h37.102V76.57l-37.102,33.702V32.604z M94.733,201.626H15.665v-35.638h114.707
			L94.733,201.626z M417.746,201.626h-87.862l-35.639-35.638h27.754v-15.665h-43.419l-35.634-35.634h174.801V201.626z
			 M417.746,99.024H227.28l-14.972-14.972l-14.972,14.972h-62.989v15.665h47.323l-35.634,35.634H15.665V63.385h19.514v82.278
			l68.433-62.16V63.385h314.134V99.024z"></path>
    </g>
  </g>
  <g transform="matrix(1, 0, 0, 1, 0, -16)">
    <g>
      <rect x="97.794" y="99.027" width="15.665" height="15.665"></rect>
    </g>
  </g>
  <g transform="matrix(1, 0, 0, 1, 0, -16)">
    <g>
      <rect x="379.439" y="150.326" width="15.665" height="15.665"></rect>
    </g>
  </g>
  <g transform="matrix(1, 0, 0, 1, 0, -16)">
    <g>
      <rect x="342.886" y="150.326" width="15.665" height="15.665"></rect>
    </g>
  </g>
  <g transform="matrix(1, 0, 0, 1, 0, -16)">
    <g>
      <path d="M496.857,401.267v-66.839H376.755v53.586h15.665v-37.921h88.771v51.174h-119.58v93.794H512v-93.794H496.857z
			 M496.335,479.396H377.277v-62.464h119.058V479.396z"></path>
    </g>
  </g>
</svg>