<svg fill="#000000" width="100%" version="1.1" id="Layer_1" viewBox="0 0 512.946 435" xmlns="http://www.w3.org/2000/svg">
  <defs></defs>
  <g transform="matrix(1, 0, 0, 1, 1, -38)">
    <g>
      <g>
        <path d="M504.136,252.002l-75.498-83.308c-6.075-6.075-13.885-9.546-21.695-9.546h-79.837c-13.885,0-24.298,11.281-24.298,24.298
				v132.773h-35.842l-30.979-74.631c-0.329-0.768-0.681-1.519-1.044-2.262l70.029-115.342c18.901-4.71,32.547-21.528,32.547-42.07
				c0-24.298-19.092-43.39-43.39-43.39c-9.964,0-19.049,3.215-26.305,8.678H137.926H7.756c-2.603,0-5.207,1.736-6.942,3.471
				c-1.736,2.603-2.603,5.207-0.868,7.81l27.769,84.176c5.207,15.62,19.959,26.034,36.447,26.034h47.729
				c19.092,0,34.712-15.62,34.712-34.712V99.27h94.778l-72.065,118.392c-9.493,5.046-17.293,13.303-21.846,23.927l-30.979,74.631
				H16.434v83.308c0,11.281,9.546,20.827,20.827,20.827h5.82c4.144,29.649,29.24,52.068,60.133,52.068
				c30.893,0,55.989-22.419,60.133-52.068H346.81c4.144,29.649,29.24,52.068,60.133,52.068c30.893,0,55.989-22.419,60.133-52.068
				h23.175c11.281,0,20.827-9.546,21.695-20.827v-118.02v-8.678v-0.868C511.946,264.151,509.343,257.209,504.136,252.002z
				 M490.251,264.151H363.553v-86.78h43.39c3.471,0,6.075,0.868,8.678,3.471L490.251,264.151z M320.163,81.914
				c0,14.753-11.281,26.034-26.034,26.034c-11.288,0-21.266-7.833-24.851-18.402c0.039-0.808-0.046-1.617-0.315-2.425
				c-0.65-1.3-0.813-3.088-0.854-4.633c0-0.005,0-0.009,0-0.014c-0.006-0.232-0.009-0.456-0.011-0.675
				c0.059-14.696,11.317-25.919,26.031-25.919C308.882,55.88,320.163,67.161,320.163,81.914z M129.248,64.558v26.034v8.678H31.615
				l-11.71-34.712H129.248z M111.892,151.337H64.163c-8.678,0-17.356-6.075-19.959-14.753l-6.733-19.959h91.777v17.356
				C129.248,143.527,121.438,151.337,111.892,151.337z M146.604,64.558H254.21c-2.603,5.207-3.471,11.281-3.471,17.356H146.604
				V64.558z M257.295,105.115c5.813,9.329,15.083,16.189,26.146,18.903l-60.471,99.346c-8.678-6.942-19.092-11.281-30.373-11.281
				L257.295,105.115z M163.96,248.531c2.336-6.541,6.694-11.555,12.107-14.807c0.908-0.127,1.803-0.392,2.646-0.813
				c12.832-5.988,29.032-1.851,37.803,9.906c1.193,1.778,2.204,3.687,2.984,5.714l28.637,67.688H135.322L163.96,248.531z
				 M103.214,455.066c-24.298,0-43.39-19.091-43.39-43.39c0-24.298,19.091-43.39,43.39-43.39c24.298,0,43.39,19.092,43.39,43.39
				C146.604,435.975,127.512,455.066,103.214,455.066z M406.943,455.066c-24.298,0-43.39-19.091-43.39-43.39
				c0-24.298,19.092-43.39,43.39-43.39c24.298,0,43.39,19.092,43.39,43.39C450.332,435.975,431.241,455.066,406.943,455.066z
				 M490.251,402.998h-23.175c-4.144-29.649-29.24-52.068-60.133-52.068c-0.141,0-0.279,0.009-0.419,0.01
				c-0.15-0.001-0.299-0.01-0.449-0.01c-30.373,0-55.539,22.563-59.878,52.068h-182.85c-3.886-27.803-26.199-49.238-54.438-51.8
				c-0.201-0.019-0.404-0.028-0.605-0.045c-0.716-0.058-1.432-0.117-2.155-0.15c-0.973-0.047-1.951-0.073-2.935-0.073
				s-1.962,0.026-2.935,0.073c-0.723,0.034-1.439,0.092-2.155,0.15c-0.201,0.017-0.405,0.026-0.605,0.045
				c-28.239,2.562-50.552,23.996-54.438,51.8h-5.82c-1.736,0-3.471-1.736-3.471-3.471v-65.953h75.498H274.17h45.993V184.314
				c0-4.339,3.471-6.942,6.942-6.942h19.092v89.383c0,7.81,6.942,14.753,14.753,14.753h132.773v26.034h-43.39
				c-5.207,0-8.678,3.471-8.678,8.678c0,5.207,3.471,8.678,8.678,8.678h43.39v74.63
				C493.722,401.263,491.987,402.998,490.251,402.998z"></path>
        <path d="M103.214,394.321c-9.546,0-17.356,7.81-17.356,17.356c0,9.546,7.81,17.356,17.356,17.356
				c9.546,0,17.356-7.81,17.356-17.356C120.57,402.131,112.76,394.321,103.214,394.321z"></path>
        <path d="M406.943,394.321c-9.546,0-17.356,7.81-17.356,17.356c0,9.546,7.81,17.356,17.356,17.356
				c9.546,0,17.356-7.81,17.356-17.356C424.299,402.131,416.488,394.321,406.943,394.321z"></path>
        <path d="M191.729,255.473c-5.207,0-8.678,3.471-8.678,8.678s3.471,8.678,8.678,8.678s8.678-3.471,8.678-8.678
				S196.936,255.473,191.729,255.473z"></path>
      </g>
    </g>
  </g>
</svg>