<?xml version="1.0" encoding="iso-8859-1"?>
<!-- Uploaded to: SVG Repo, www.svgrepo.com, Generator: SVG Repo Mixer Tools -->
<svg fill="#000000" stroke="#000000" stroke-width="0.2" width="100%" version="1.1" id="Layer_1" viewBox="0 0 30 28.5" xmlns="http://www.w3.org/2000/svg">
  <defs></defs>
  <path id="recycle_1_" d="M 19 28.36 C 18.893 28.36 18.788 28.311 18.719 28.224 L 14.719 23.224 C 14.614 23.093 14.614 22.906 14.719 22.775 L 18.719 17.775 C 18.814 17.655 18.974 17.608 19.119 17.66 C 19.264 17.711 19.36 17.847 19.36 18 L 19.36 19.64 L 23.501 19.64 L 20.389 14.025 C 20.342 13.942 20.331 13.843 20.358 13.752 C 20.385 13.661 20.446 13.583 20.529 13.536 L 25.781 10.625 C 25.865 10.579 25.963 10.568 26.055 10.594 C 26.147 10.62 26.224 10.682 26.271 10.766 L 29.556 16.7 C 29.968 17.445 29.96 18.336 29.535 19.083 C 29.534 19.084 29.534 19.084 29.534 19.084 L 26.098 25.158 C 25.677 25.901 24.884 26.362 24.027 26.362 C 24.024 26.362 24.021 26.362 24.018 26.362 L 19.36 26.362 L 19.36 28 C 19.36 28.153 19.263 28.289 19.119 28.34 C 19.08 28.354 19.04 28.36 19 28.36 Z M 15.461 23 L 18.64 26.974 L 18.64 26 C 18.64 25.801 18.801 25.64 19 25.64 L 24.02 25.64 C 24.022 25.64 24.025 25.64 24.027 25.64 C 24.635 25.64 25.175 25.328 25.472 24.801 L 28.03 20.28 C 27.834 20.333 27.63 20.361 27.421 20.361 C 27.417 20.361 27.412 20.361 27.407 20.361 L 19 20.361 C 18.801 20.361 18.64 20.2 18.64 20.001 L 18.64 19.027 L 15.461 23 Z M 24.324 19.64 L 27.408 19.64 C 27.411 19.64 27.415 19.64 27.418 19.64 C 28.027 19.64 28.582 19.299 28.908 18.727 L 28.908 18.726 C 29.213 18.191 29.22 17.579 28.925 17.048 L 25.815 11.428 L 21.193 13.99 L 24.324 19.64 Z M 12.994 26.36 L 6.211 26.356 C 5.36 26.355 4.585 25.917 4.137 25.183 L 0.49 19.233 C 0.042 18.502 0.024 17.581 0.445 16.829 L 2.703 12.755 L 1.27 11.96 C 1.136 11.886 1.064 11.735 1.089 11.585 C 1.115 11.435 1.233 11.316 1.383 11.291 L 7.695 10.216 C 7.864 10.187 8.025 10.278 8.089 10.434 L 10.523 16.356 C 10.581 16.498 10.544 16.66 10.429 16.761 C 10.315 16.864 10.149 16.882 10.015 16.807 L 8.581 16.012 L 6.573 19.634 L 12.993 19.634 C 13.192 19.634 13.353 19.795 13.353 19.994 L 13.353 26 C 13.353 26.096 13.315 26.188 13.248 26.255 C 13.181 26.322 13.089 26.36 12.994 26.36 Z M 4.751 24.808 C 5.072 25.334 5.605 25.636 6.211 25.636 L 12.633 25.64 L 12.633 20.356 L 6.175 20.356 L 4.68 23.053 C 4.379 23.587 4.407 24.242 4.751 24.808 Z M 2.517 11.828 L 3.368 12.3 C 3.451 12.346 3.514 12.424 3.54 12.516 C 3.566 12.608 3.555 12.706 3.509 12.789 L 1.075 17.18 C 0.776 17.713 0.788 18.34 1.105 18.857 L 3.819 23.287 C 3.869 23.085 3.946 22.889 4.051 22.702 L 8.127 15.349 C 8.173 15.266 8.251 15.204 8.343 15.178 C 8.435 15.152 8.533 15.162 8.616 15.209 L 9.468 15.681 L 7.534 10.974 L 2.517 11.828 Z M 22.618 11.221 C 22.599 11.221 22.58 11.22 22.56 11.217 L 16.239 10.198 C 16.089 10.174 15.969 10.056 15.942 9.906 C 15.915 9.756 15.986 9.605 16.119 9.529 L 17.547 8.721 L 15.507 5.117 L 12.153 10.591 C 12.049 10.76 11.827 10.813 11.658 10.71 L 6.538 7.572 C 6.456 7.522 6.398 7.442 6.376 7.349 C 6.354 7.256 6.369 7.158 6.419 7.077 L 9.967 1.296 C 10.411 0.572 11.188 0.141 12.046 0.141 C 12.047 0.141 12.048 0.141 12.049 0.141 L 19.029 0.141 C 19.03 0.141 19.031 0.141 19.032 0.141 C 19.887 0.141 20.68 0.607 21.101 1.358 L 23.395 5.412 L 24.822 4.604 C 24.955 4.529 25.121 4.546 25.237 4.646 C 25.352 4.747 25.39 4.909 25.334 5.051 L 22.952 10.994 C 22.896 11.133 22.764 11.221 22.618 11.221 Z M 17.367 9.65 L 22.391 10.46 L 24.284 5.737 L 23.437 6.216 C 23.354 6.263 23.255 6.274 23.164 6.249 C 23.071 6.224 22.993 6.163 22.946 6.08 L 20.474 1.71 C 20.18 1.185 19.628 0.86 19.032 0.86 C 19.031 0.86 19.03 0.86 19.029 0.86 L 13.834 0.86 C 13.98 1.008 14.106 1.176 14.211 1.362 L 18.351 8.679 C 18.449 8.852 18.388 9.072 18.215 9.17 L 17.367 9.65 Z M 7.221 7.146 L 11.727 9.907 L 15.102 4.4 L 13.583 1.715 C 13.284 1.18 12.71 0.861 12.048 0.86 C 12.047 0.86 12.047 0.86 12.046 0.86 C 11.431 0.86 10.897 1.156 10.58 1.672 L 7.221 7.146 Z"></path>
</svg>