<?xml version="1.0" encoding="iso-8859-1"?>
<!-- Uploaded to: SVG Repo, www.svgrepo.com, Generator: SVG Repo Mixer Tools -->
<svg fill="#000000" width="100%" version="1.1" id="Layer_1" xmlns="http://www.w3.org/2000/svg" xmlns:xlink="http://www.w3.org/1999/xlink" 
	 viewBox="0 0 512.001 512.001" xml:space="preserve">
<g>
	<g>
		<path d="M256.001,0C114.841,0,0,114.841,0,256.001s114.841,256.001,256.001,256.001S512.001,397.16,512.001,256.001
			C512,114.841,397.159,0,256.001,0z M19.766,265.775h75.324c1.069,45.813,9.631,89.54,24.74,127.469
			c-12.159,7.661-23.731,16.39-34.597,26.138C46.671,379.093,22.197,325.228,19.766,265.775z M99.363,432.963
			c8.977-7.954,18.465-15.166,28.39-21.594c3.983,8.31,8.306,16.278,12.961,23.855c10.528,17.138,22.32,31.605,35.057,43.204
			C147.393,468.161,121.53,452.606,99.363,432.963z M246.226,491.878c-33.258-3.845-64.505-27.247-88.854-66.887
			c-4.584-7.462-8.819-15.346-12.707-23.585c31.083-16.624,65.654-26.104,101.561-27.564V491.878z M246.226,354.283
			c-38.597,1.448-75.791,11.444-109.295,29.082c-13.558-35.016-21.257-75.299-22.287-117.591h131.582V354.283z M246.226,246.226
			h-131.58c0.794-32.785,5.573-64.296,14.264-93.798c1.526-5.179-1.436-10.614-6.614-12.138c-5.18-1.527-10.614,1.437-12.137,6.614
			c-9.218,31.287-14.267,64.657-15.066,99.322H19.766c2.431-59.452,26.902-113.314,65.461-153.601
			c44.593,40.005,101.104,62.856,160.999,65.103V246.226z M246.226,138.167c-54.557-2.217-106.039-22.942-146.869-59.125
			c22.224-19.696,48.167-35.282,76.634-45.549c-9.355,8.458-18.196,18.437-26.371,29.854c-3.142,4.388-2.132,10.495,2.256,13.637
			c4.387,3.141,10.495,2.135,13.639-2.256c22.949-32.046,51.295-51.117,80.712-54.595V138.167z M492.234,246.226h-75.325
			c-1.069-45.811-9.63-89.535-24.737-127.462c12.159-7.662,23.732-16.392,34.6-26.141
			C465.331,132.91,489.803,186.773,492.234,246.226z M412.64,79.04c-8.977,7.955-18.466,15.167-28.391,21.596
			c-3.984-8.311-8.308-16.282-12.964-23.861c-10.528-17.138-22.32-31.605-35.057-43.205C364.607,43.839,390.473,59.396,412.64,79.04
			z M354.628,87.009c4.586,7.464,8.822,15.351,12.711,23.591c-31.085,16.628-65.657,26.109-101.563,27.568V20.122
			C299.034,23.967,330.279,47.37,354.628,87.009z M336.298,478.405c13.669-12.47,26.246-28.247,37.351-47.114
			c2.741-4.654,1.189-10.645-3.463-13.383c-4.655-2.738-10.645-1.187-13.382,3.465c-24.656,41.887-56.678,66.562-91.031,70.506
			V373.843c54.55,2.216,106.029,22.941,146.86,59.122C390.486,452.591,364.648,468.136,336.298,478.405z M426.765,419.383
			c-44.596-40.005-101.102-62.855-160.991-65.1v-88.509h77.626c5.399,0,9.774-4.376,9.774-9.774s-4.375-9.774-9.774-9.774h-77.626
			v-88.497c38.596-1.448,75.789-11.445,109.296-29.086c13.555,35.014,21.253,75.295,22.284,117.585h-14.857
			c-5.399,0-9.774,4.376-9.774,9.774s4.375,9.774,9.774,9.774h14.854c-0.808,33.435-5.756,65.52-14.768,95.498
			c-1.553,5.17,1.378,10.62,6.546,12.175c0.938,0.282,1.886,0.416,2.818,0.416c4.203,0,8.084-2.732,9.357-6.963
			c9.558-31.797,14.787-65.774,15.601-101.127h75.327C489.803,325.229,465.329,379.094,426.765,419.383z"/>
	</g>
</g>
</svg>